<svg xmlns="http://www.w3.org/2000/svg" width="14.998" height="12" viewBox="0 0 14.998 12">
  <g id="icons" transform="translate(-2.001 -6)">
    <g id="check_x5F_mark_1_" transform="translate(0 0)" fill="#11bf1d">
      <path d="M 7.577079772949219 17.49999809265137 C 7.309760093688965 17.49999809265137 7.063889980316162 17.39652824401855 6.884779930114746 17.20864868164063 L 2.768100023269653 12.89046764373779 C 2.424560070037842 12.53008842468262 2.409219980239868 11.93875789642334 2.732429981231689 11.514967918396 L 2.749119997024536 11.49308776855469 L 2.768100023269653 11.47316837310791 L 3.418100118637085 10.79134845733643 C 3.597219944000244 10.60346794128418 3.843090057373047 10.49999809265137 4.110420227050781 10.49999809265137 C 4.357019901275635 10.49999809265137 4.60004997253418 10.58997821807861 4.794730186462402 10.7533483505249 L 4.8160400390625 10.77121829986572 L 4.835229873657227 10.79134845733643 L 7.593330383300781 13.68446254730225 L 14.16477012634277 6.79135799407959 C 14.34387969970703 6.603477954864502 14.58975028991699 6.500008106231689 14.85708045959473 6.500008106231689 C 15.10367965698242 6.500008106231689 15.34671020507813 6.589978218078613 15.54141044616699 6.753357887268066 L 15.56270980834961 6.771228313446045 L 15.58189010620117 6.79135799407959 L 16.23188972473145 7.473167896270752 C 16.575439453125 7.833538055419922 16.59077072143555 8.424867630004883 16.26758003234863 8.848658561706543 L 16.25089073181152 8.870548248291016 L 16.23189926147461 8.890467643737793 L 8.301899909973145 17.20864868164063 L 8.282699584960938 17.22877883911133 L 8.26140022277832 17.24665832519531 C 8.066710472106934 17.4100284576416 7.82367992401123 17.49999809265137 7.577079772949219 17.49999809265137 Z" stroke="none"/>
      <path d="M 7.577082633972168 16.99999618530273 C 7.701664924621582 16.99999618530273 7.8316650390625 16.95454216003418 7.940000057220459 16.86363792419434 L 15.86999988555908 8.54545783996582 C 16.0433292388916 8.318178176879883 16.0433292388916 7.999998092651367 15.86999988555908 7.818178176879883 L 15.22000026702881 7.136368274688721 C 15.11166477203369 7.045458316802979 14.98166465759277 7.000002861022949 14.85708236694336 7.000002861022949 C 14.73250007629395 7.000002861022949 14.61333465576172 7.045458316802979 14.52667045593262 7.136368274688721 L 7.593329906463623 14.40908813476563 L 4.473330020904541 11.1363582611084 C 4.364999771118164 11.04545307159424 4.235000133514404 11.00000095367432 4.110416412353516 11.00000095367432 C 3.985832452774048 11.00000095367432 3.866664886474609 11.04545307159424 3.779999971389771 11.1363582611084 L 3.130000114440918 11.81817817687988 C 2.956670045852661 12.04544830322266 2.956670045852661 12.36363792419434 3.130000114440918 12.54545783996582 L 7.246669769287109 16.86363792419434 C 7.333334922790527 16.95454216003418 7.452499866485596 16.99999618530273 7.577082633972168 16.99999618530273 M 7.577079772949219 17.99999809265137 C 7.171669960021973 17.99999809265137 6.797279834747314 17.84148788452148 6.522890090942383 17.55366897583008 L 2.406209945678711 13.23547840118408 C 1.894780039787292 12.69899845123291 1.864109992980957 11.82899856567383 2.33486008644104 11.21175765991211 L 2.368230104446411 11.16799831390381 L 2.406209945678711 11.12815856933594 L 3.056210041046143 10.44633769989014 C 3.330660104751587 10.15849781036377 3.705029964447021 9.999998092651367 4.110420227050781 9.999998092651367 C 4.47435998916626 9.999998092651367 4.831530094146729 10.13150787353516 5.116119861602783 10.37031841278076 L 5.158740043640137 10.40607833862305 L 5.197120189666748 10.44633769989014 L 7.593330860137939 12.95984840393066 L 13.80288028717041 6.446348190307617 C 14.07728004455566 6.158518314361572 14.45166969299316 6.000008106231689 14.85708045959473 6.000008106231689 C 15.22105979919434 6.000008106231689 15.57824039459229 6.131537914276123 15.86283016204834 6.370357990264893 L 15.90542030334473 6.406097888946533 L 15.94379043579102 6.446348190307617 L 16.59379005432129 7.128158092498779 C 17.10520935058594 7.664628028869629 17.13587951660156 8.534618377685547 16.6651496887207 9.151867866516113 L 16.63178062438965 9.195637702941895 L 16.59379005432129 9.235478401184082 L 8.663789749145508 17.55365753173828 L 8.625419616699219 17.59389877319336 L 8.582830429077148 17.62964820861816 C 8.298239707946777 17.86846733093262 7.941060066223145 17.99999809265137 7.577079772949219 17.99999809265137 Z" stroke="none" fill="#11bf1d"/>
    </g>
  </g>
</svg>
