<svg xmlns="http://www.w3.org/2000/svg" xmlns:xlink="http://www.w3.org/1999/xlink" width="30" height="30" viewBox="0 0 30 30">
  <defs>
    <clipPath id="clip-path">
      <rect id="Rectangle_31" data-name="Rectangle 31" width="30" height="30" transform="translate(815 1989)" fill="#fff" stroke="#707070" stroke-width="1"/>
    </clipPath>
    <linearGradient id="linear-gradient" x1="0.829" y1="0.916" x2="0.13" y2="0.033" gradientUnits="objectBoundingBox">
      <stop offset="0" stop-color="#3b5998"/>
      <stop offset="1" stop-color="#369"/>
    </linearGradient>
  </defs>
  <g id="Mask_Group_1" data-name="Mask Group 1" transform="translate(-815 -1989)" clip-path="url(#clip-path)">
    <path id="iconfinder_Facebook_570631" d="M15.428.428a15,15,0,1,0,0,30c.107,0,.214,0,.321,0V20.534H12.427V16.382h3.322V13.89c0-3.421,1.931-5.814,4.983-5.814h3.322v4.153H22.393A2.2,2.2,0,0,0,19.9,14.721v1.661h4.153l-.831,4.153H19.9v9.215A15,15,0,0,0,15.428.428Z" transform="translate(814.572 1988.572)" fill="url(#linear-gradient)"/>
  </g>
</svg>
