<svg xmlns="http://www.w3.org/2000/svg" xmlns:xlink="http://www.w3.org/1999/xlink" width="30" height="30" viewBox="0 0 30 30">
  <defs>
    <clipPath id="clip-path">
      <rect id="Rectangle_32" data-name="Rectangle 32" width="30" height="30" transform="translate(855 1989)" fill="#fff" stroke="#707070" stroke-width="1"/>
    </clipPath>
    <linearGradient id="linear-gradient" x1="0.146" y1="0.854" x2="0.854" y2="0.146" gradientUnits="objectBoundingBox">
      <stop offset="0" stop-color="#ffd521"/>
      <stop offset="0.055" stop-color="#ffd020"/>
      <stop offset="0.124" stop-color="#fec01e"/>
      <stop offset="0.2" stop-color="#fca71b"/>
      <stop offset="0.282" stop-color="#fa8316"/>
      <stop offset="0.368" stop-color="#f85510"/>
      <stop offset="0.456" stop-color="#f51e09"/>
      <stop offset="0.5" stop-color="#f30005"/>
      <stop offset="0.503" stop-color="#f20007"/>
      <stop offset="0.597" stop-color="#e1003b"/>
      <stop offset="0.688" stop-color="#d30067"/>
      <stop offset="0.776" stop-color="#c70088"/>
      <stop offset="0.859" stop-color="#bf00a0"/>
      <stop offset="0.936" stop-color="#bb00af"/>
      <stop offset="1" stop-color="#b900b4"/>
    </linearGradient>
  </defs>
  <g id="Mask_Group_2" data-name="Mask Group 2" transform="translate(-855 -1989)" clip-path="url(#clip-path)">
    <g id="iconfinder_2018_social_media_popular_app_logo_instagram_3225191" transform="translate(855 1989)">
      <path id="Path_16" data-name="Path 16" d="M15,30h0A15,15,0,0,1,0,15H0A15,15,0,0,1,15,0h0A15,15,0,0,1,30,15h0A15,15,0,0,1,15,30Z" fill="url(#linear-gradient)"/>
      <g id="Group_134" data-name="Group 134">
        <path id="Path_17" data-name="Path 17" d="M15,6.606c2.733,0,3.057.009,4.137.06a5.618,5.618,0,0,1,1.9.354A3.386,3.386,0,0,1,22.98,8.961a5.7,5.7,0,0,1,.354,1.9c.048,1.08.06,1.4.06,4.137s-.009,3.057-.06,4.137a5.618,5.618,0,0,1-.354,1.9,3.386,3.386,0,0,1-1.941,1.941,5.7,5.7,0,0,1-1.9.354c-1.08.048-1.4.06-4.137.06s-3.057-.009-4.137-.06a5.618,5.618,0,0,1-1.9-.354A3.386,3.386,0,0,1,7.02,21.039a5.7,5.7,0,0,1-.354-1.9c-.048-1.08-.06-1.4-.06-4.137s.009-3.057.06-4.137a5.618,5.618,0,0,1,.354-1.9A3.386,3.386,0,0,1,8.961,7.02a5.7,5.7,0,0,1,1.9-.354c1.08-.051,1.4-.06,4.137-.06m0-1.845c-2.781,0-3.129.012-4.221.063A7.526,7.526,0,0,0,8.292,5.3,4.943,4.943,0,0,0,6.48,6.48,5.04,5.04,0,0,0,5.3,8.3a7.571,7.571,0,0,0-.477,2.487c-.051,1.092-.063,1.44-.063,4.221s.012,3.129.063,4.221A7.526,7.526,0,0,0,5.3,21.711a5.253,5.253,0,0,0,3,2.991,7.571,7.571,0,0,0,2.487.477c1.092.051,1.44.063,4.221.063s3.129-.012,4.221-.063a7.526,7.526,0,0,0,2.487-.477,5.253,5.253,0,0,0,2.991-3,7.571,7.571,0,0,0,.477-2.487c.051-1.092.063-1.44.063-4.221s-.012-3.129-.063-4.221A7.526,7.526,0,0,0,24.7,8.289a5.253,5.253,0,0,0-3-2.991,7.571,7.571,0,0,0-2.487-.477c-1.089-.048-1.437-.06-4.218-.06Z" fill="#fff"/>
        <path id="Path_18" data-name="Path 18" d="M15,9.741A5.259,5.259,0,1,0,20.259,15,5.26,5.26,0,0,0,15,9.741Zm0,8.673A3.414,3.414,0,1,1,18.414,15,3.414,3.414,0,0,1,15,18.414Z" fill="#fff"/>
        <circle id="Ellipse_9" data-name="Ellipse 9" cx="1.23" cy="1.23" r="1.23" transform="translate(19.236 8.304)" fill="#fff"/>
      </g>
    </g>
  </g>
</svg>
