<svg xmlns="http://www.w3.org/2000/svg" width="178.411" height="70.714" viewBox="0 0 178.411 70.714">
  <g id="Logo" transform="translate(-111.4 -92)">
    <g id="Group_9" data-name="Group 9" transform="translate(142.142 92)">
      <path id="Path_1" data-name="Path 1" d="M247.2,128.984c.332-4.05,1.726-7.835-.93-11.487-4.515,4.913-8.964,9.827-13.412,14.674-1.262,1.394-2.855,2.656-3.785,4.249-3.253,5.511-8.233,4.648-13.744,3.984,2.59-2.191,4.913-4.117,7.5-6.308-2.258-1-4.316-1.859-6.573-2.855,4.714-5.909,9.362-11.752,14.408-18.06h-8.5c2.058-4.648,3.984-8.831,5.843-12.948-.133-.066-.266-.2-.4-.266-2.656,2.523-5.378,5.113-8.034,7.636-10.69,10.225-21.446,20.318-31.937,30.676-2.523,2.523-5.113,2.457-8.366,2.125.664-2.191,1.262-4.117,1.859-6.175-.93-.4-1.726-.73-2.921-1.262,4.249-2.191,3.054-5.644,2.39-9.428-7.569,5.909-14.939,11.686-22.243,17.4a9.761,9.761,0,0,1-.664-.863c7.636-6.706,15.205-13.346,22.907-20.119,3.917,3.121,7.769,6.109,11.42,9.03,12.416-12.35,24.766-24.634,37.249-36.984,16.267,16,32.2,31.8,48.2,47.607-.066.133-.2.332-.266.465-3.054-1.2-6.042-2.457-9.163-3.453-4.98-1.594-9.495-3.851-13.08-7.769-1.66-1.859-3.32-2.191-5.378-.8C248.931,128.32,248.2,128.519,247.2,128.984Z" transform="translate(-157.7 -92)" fill="#292929"/>
    </g>
    <g id="Group_10" data-name="Group 10" transform="translate(111.4 153.086)">
      <path id="Path_2" data-name="Path 2" d="M124.68,184.2l-2.722,9.3H119.5l-1.461-5.113-1.461,5.113h-2.457l-2.722-9.3h2.988l1.262,5.245,1.461-5.245h1.859l1.461,5.245,1.262-5.245Z" transform="translate(-111.4 -184.067)" fill="#292929"/>
      <path id="Path_3" data-name="Path 3" d="M139.322,184.2v9.3H136.6v-9.3Z" transform="translate(-119.868 -184.067)" fill="#292929"/>
      <path id="Path_4" data-name="Path 4" d="M155.266,184.2v9.3h-2.457l-3.187-4.98v4.98H146.9v-9.3h2.457l3.187,4.98V184.2Z" transform="translate(-123.329 -184.067)" fill="#292929"/>
      <path id="Path_5" data-name="Path 5" d="M184.361,188.781a4.781,4.781,0,1,1-9.561,0,4.781,4.781,0,0,1,9.561,0Zm-2.722,0a2.059,2.059,0,1,0-2.058,2.125A1.936,1.936,0,0,0,181.639,188.781Z" transform="translate(-132.704 -184)" fill="#292929"/>
      <path id="Path_6" data-name="Path 6" d="M203.233,184.2v5.511c0,2.789-1.594,3.984-4.117,3.984S195,192.5,195,189.711V184.2h2.722v5.245c0,1.062.531,1.527,1.394,1.527s1.394-.465,1.394-1.527V184.2Z" transform="translate(-139.491 -184.067)" fill="#292929"/>
      <path id="Path_7" data-name="Path 7" d="M220.1,186.723h-2.191V193.5h-2.722v-6.773H213V184.2h7.1Z" transform="translate(-145.54 -184.067)" fill="#292929"/>
      <path id="Path_8" data-name="Path 8" d="M237.8,188.848c0,2.855-1.926,4.648-4.98,4.648H229.3v-9.3h3.519C235.873,184.2,237.8,185.993,237.8,188.848Zm-2.722,0a2,2,0,0,0-2.258-2.125h-.8v4.316h.8A2.043,2.043,0,0,0,235.077,188.848Z" transform="translate(-151.017 -184.067)" fill="#292929"/>
      <path id="Path_9" data-name="Path 9" d="M256.861,188.781a4.781,4.781,0,1,1-9.561,0,4.781,4.781,0,1,1,9.561,0Zm-2.722,0a1.968,1.968,0,0,0-2.058-2.125,2,2,0,0,0-2.058,2.125,1.968,1.968,0,0,0,2.058,2.125A1.937,1.937,0,0,0,254.139,188.781Z" transform="translate(-157.065 -184)" fill="#292929"/>
      <path id="Path_10" data-name="Path 10" d="M276.461,188.781a4.781,4.781,0,1,1-9.561,0,4.781,4.781,0,0,1,9.561,0Zm-2.722,0a1.968,1.968,0,0,0-2.058-2.125,2,2,0,0,0-2.058,2.125,1.968,1.968,0,0,0,2.058,2.125A1.937,1.937,0,0,0,273.739,188.781Z" transform="translate(-163.651 -184)" fill="#292929"/>
      <path id="Path_11" data-name="Path 11" d="M290.785,190.508h-1V193.5H287v-9.3h3.785c2.59,0,3.785,1.262,3.785,3.32a2.549,2.549,0,0,1-1.328,2.457l1.992,3.519h-2.922Zm-1-2.125h1.062c.6,0,1.062-.2,1.062-.8,0-.531-.332-.863-1.062-.863h-1.062Z" transform="translate(-170.405 -184.067)" fill="#292929"/>
      <path id="Path_12" data-name="Path 12" d="M323.029,188.05v5.378h-1.2L321.5,192.3a3.7,3.7,0,0,1-2.922,1.328,4.814,4.814,0,0,1,0-9.628,4.723,4.723,0,0,1,3.917,1.926l-2.258,1.527a1.979,1.979,0,0,0-1.594-.8,2,2,0,0,0-2.058,2.125,2.116,2.116,0,0,0,2.058,2.258,1.813,1.813,0,0,0,1.859-1.062h-2.058V188.05Z" transform="translate(-179.411 -184)" fill="#292929"/>
      <path id="Path_13" data-name="Path 13" d="M340.008,191.238V193.5H333.7v-9.3h6.175v2.258h-3.453v1.262h2.988v2.125h-2.988v1.328h3.586Z" transform="translate(-186.098 -184.067)" fill="#292929"/>
      <path id="Path_14" data-name="Path 14" d="M354.241,192.035h-2.855l-.4,1.461H348l3.121-9.3h3.386l3.121,9.3H354.64Zm-.531-1.992-.863-3.187-.863,3.187Z" transform="translate(-190.903 -184.067)" fill="#292929"/>
      <path id="Path_15" data-name="Path 15" d="M371.418,190.508h-1V193.5H367.7v-9.3h3.785c2.59,0,3.785,1.262,3.785,3.32a2.549,2.549,0,0,1-1.328,2.457l1.992,3.519h-2.988Zm-1-2.125h1.062c.6,0,1.062-.2,1.062-.8,0-.531-.332-.863-1.062-.863h-1.062Z" transform="translate(-197.522 -184.067)" fill="#292929"/>
    </g>
  </g>
</svg>
