<svg xmlns="http://www.w3.org/2000/svg" xmlns:xlink="http://www.w3.org/1999/xlink" width="30" height="30" viewBox="0 0 30 30">
  <defs>
    <clipPath id="clip-path">
      <rect id="Rectangle_33" data-name="Rectangle 33" width="30" height="30" transform="translate(895 1989)" fill="#fff" stroke="#707070" stroke-width="1"/>
    </clipPath>
  </defs>
  <g id="Mask_Group_3" data-name="Mask Group 3" transform="translate(-895 -1989)" clip-path="url(#clip-path)">
    <g id="iconfinder_twitter_circle_294709" transform="translate(895 1989)">
      <circle id="Ellipse_10" data-name="Ellipse 10" cx="15" cy="15" r="15" fill="#1cb7eb"/>
      <g id="Group_136" data-name="Group 136">
        <g id="Group_135" data-name="Group 135">
          <path id="Path_19" data-name="Path 19" d="M23,9.625a5.01,5.01,0,0,1-1.875.563A3.483,3.483,0,0,0,22.563,8.25a7.23,7.23,0,0,1-2.125.875A3.19,3.19,0,0,0,18.062,8a3.435,3.435,0,0,0-3.312,3.562,3.564,3.564,0,0,0,.063.812A9.148,9.148,0,0,1,8,8.687,3.391,3.391,0,0,0,7.562,10.5,3.555,3.555,0,0,0,9,13.437,3.009,3.009,0,0,1,7.5,13v.063a3.581,3.581,0,0,0,2.625,3.5,3.689,3.689,0,0,1-.875.125,2.126,2.126,0,0,1-.625-.062,3.249,3.249,0,0,0,3.062,2.438,6.382,6.382,0,0,1-4.062,1.5,3.844,3.844,0,0,1-.812-.062,8.88,8.88,0,0,0,5.062,1.625c6.063,0,9.375-5.375,9.375-10.062v-.437A7.467,7.467,0,0,0,23,9.625Z" fill="#fff"/>
        </g>
      </g>
    </g>
  </g>
</svg>
